<svg xmlns="http://www.w3.org/2000/svg" viewBox="0 0 100 100">
  <!-- Main prism -->
  <polygon points="50,10 90,90 10,90" fill="none" stroke="url(#logoGradient)" stroke-width="2"/>
  
  <!-- Inner prism -->
  <polygon points="50,30 75,80 25,80" fill="none" stroke="url(#innerGradient)" stroke-width="1.5" opacity="0.7"/>
  
  <!-- Light beams -->
  <path d="M50,10 L50,0" stroke="url(#beamGradient)" stroke-width="1.5" stroke-dasharray="2,2"/>
  <path d="M10,90 L0,95" stroke="url(#beamGradient)" stroke-width="1.5" stroke-dasharray="2,2"/>
  <path d="M90,90 L100,95" stroke="url(#beamGradient)" stroke-width="1.5" stroke-dasharray="2,2"/>
  
  <!-- Refracted light -->
  <path d="M50,80 L30,100" stroke="url(#refractGradient)" stroke-width="1"/>
  <path d="M50,80 L50,100" stroke="url(#refractGradient)" stroke-width="1"/>
  <path d="M50,80 L70,100" stroke="url(#refractGradient)" stroke-width="1"/>
  
  <!-- Eye element -->
  <g transform="translate(50,50)">
    <!-- Eye outline -->
    <ellipse cx="0" cy="0" rx="8" ry="5" fill="none" stroke="url(#logoGradient)" stroke-width="1"/>
    
    <!-- Pupil -->
    <circle cx="0" cy="0" r="3" fill="url(#logoGradient)"/>
    
    <!-- Highlight -->
    <circle cx="-1" cy="-1" r="1" fill="#FFFFFF" opacity="0.7"/>
  </g>
  
  <defs>
    <linearGradient id="logoGradient" x1="0%" y1="0%" x2="100%" y2="100%">
      <stop offset="0%" stop-color="#14F195"/>
      <stop offset="100%" stop-color="#0A9D63"/>
    </linearGradient>
    
    <linearGradient id="innerGradient" x1="0%" y1="0%" x2="100%" y2="100%">
      <stop offset="0%" stop-color="#14F195"/>
      <stop offset="100%" stop-color="#0A9D63"/>
    </linearGradient>
    
    <linearGradient id="beamGradient" x1="0%" y1="0%" x2="100%" y2="100%">
      <stop offset="0%" stop-color="#14F195"/>
      <stop offset="100%" stop-color="rgba(20,241,149,0)"/>
    </linearGradient>
    
    <linearGradient id="refractGradient" x1="0%" y1="0%" x2="100%" y2="100%">
      <stop offset="0%" stop-color="#14F195"/>
      <stop offset="100%" stop-color="rgba(20,241,149,0.3)"/>
    </linearGradient>
  </defs>
</svg>

